<?xml version="1.0" standalone="no"?>
<!DOCTYPE svg PUBLIC "-//W3C//DTD SVG 20010904//EN"
 "http://www.w3.org/TR/2001/REC-SVG-20010904/DTD/svg10.dtd">
<svg version="1.0" xmlns="http://www.w3.org/2000/svg"
 width="66.000000pt" height="66.000000pt" viewBox="0 0 66.000000 66.000000"
 preserveAspectRatio="xMidYMid meet">

<g transform="translate(0.000000,66.000000) scale(0.100000,-0.100000)"
fill="#000000" stroke="none">
<path d="M420 614 c-75 -32 -93 -103 -39 -156 27 -28 29 -34 19 -56 -6 -13 -9
-27 -6 -29 8 -8 73 17 86 33 7 7 21 14 32 14 32 0 93 37 106 65 17 37 15 59
-10 90 -41 52 -119 69 -188 39z m30 -64 c0 -11 7 -20 15 -20 8 0 15 6 15 14 0
8 5 18 10 21 6 4 10 -12 10 -42 -1 -42 -2 -46 -14 -30 -16 21 -36 22 -36 2 0
-8 -4 -15 -10 -15 -5 0 -10 20 -10 45 0 25 5 45 10 45 6 0 10 -9 10 -20z m95
10 c3 -5 1 -10 -4 -10 -6 0 -11 5 -11 10 0 6 2 10 4 10 3 0 8 -4 11 -10z m5
-49 c0 -11 -4 -23 -10 -26 -6 -4 -10 5 -10 19 0 14 5 26 10 26 6 0 10 -9 10
-19z"/>
<path d="M167 460 c-28 -22 -29 -24 -22 -94 4 -41 15 -85 26 -105 23 -39 21
-42 -44 -66 -56 -21 -97 -65 -97 -105 0 -56 13 -60 219 -60 132 0 191 4 199
12 15 15 16 73 1 100 -6 11 -39 33 -74 49 -59 26 -89 49 -67 49 17 0 39 63 46
126 9 85 -7 104 -94 111 -57 4 -69 2 -93 -17z m118 -89 c33 13 35 11 35 -36 0
-51 -32 -95 -69 -95 -26 0 -69 39 -72 65 -4 54 0 64 34 67 17 2 37 0 42 -3 6
-4 19 -3 30 2z m2 -168 c2 -6 -6 -17 -18 -23 -28 -16 -71 2 -63 25 8 19 75 17
81 -2z"/>
</g>
</svg>
